<svg id="Layer_1" viewBox="0 0 24 24" xmlns="http://www.w3.org/2000/svg" data-name="Layer 1"><path d="m22.453 6.127c-.208-1.362-1.482-2.307-2.847-2.094-.563.085-1.062.363-1.444.774-.061-.313-.119-.603-.171-.838-.26-1.315-1.673-2.221-2.977-1.906-.558.122-1.039.433-1.394.87-.295-1.357-1.788-2.242-3.118-1.831-1.016.314-1.71 1.185-1.798 2.189-.491-.248-1.065-.354-1.656-.245-1.355.25-2.255 1.555-2.005 2.911.36 1.876.895 4.124.951 6.315-.739-.597-1.252-.913-1.3-.942-.904-.508-2.008-.413-2.811.242-.812.661-1.1 1.8-.705 2.756.078.204 1.955 5.023 6.023 8.074.06.045.128.076.202.09.104.021 2.594.51 6.597.51s6.022-.433 6.106-.451c.136-.03.254-.115.324-.235 1.627-2.777 2.568-5.272 2.568-9.811 0-1.819-.28-4.643-.545-6.376zm-2.772 15.485c-.606.106-2.513.388-5.681.388-3.435 0-5.771-.378-6.291-.47-3.768-2.879-5.579-7.515-5.601-7.573-.233-.563-.065-1.226.408-1.611.49-.398 1.137-.456 1.676-.153.02.012 1.997 1.219 3.919 3.621.173.214.487.251.703.078.215-.173.25-.487.078-.703-.664-.83-1.325-1.51-1.927-2.07.167-2.509-.541-5.178-.938-7.345-.15-.813.39-1.596 1.202-1.746.835-.152 1.661.377 1.811 1.156.33 1.356.858 3.862.943 6.334.009.27.231.483.499.483h.018c.276-.009.492-.241.482-.516-.123-3.548-1.124-7.165-1.239-7.571-.225-.795.243-1.611 1.034-1.852.774-.237 1.645.25 1.852 1.035.622 2.267 1.249 5.292 1.356 8.42.009.276.251.498.515.485.276-.009.493-.239.485-.515-.076-2.533-.533-5.037-.905-6.707-.165-.773.375-1.589 1.151-1.742.781-.189 1.629.356 1.786 1.144.322 1.472.888 4.673.969 7.334.009.271.23.485.5.485h.016c.275-.009.492-.239.484-.515-.047-1.55-.255-3.266-.485-4.744-.138-.799.45-1.617 1.258-1.723.808-.128 1.584.438 1.709 1.257.259 1.696.533 4.455.533 6.225 0 4.205-.847 6.559-2.317 9.11z"/></svg>